<mxfile host="Electron" agent="Mozilla/5.0 (Macintosh; Intel Mac OS X 10_15_7) AppleWebKit/537.36 (KHTML, like Gecko) draw.io/28.1.2 Chrome/138.0.7204.243 Electron/37.4.0 Safari/537.36" version="28.1.2" pages="2">
  <diagram name="Initializers" id="xWZ461zp9jYcXtCNbV3G">
    <mxGraphModel dx="3272" dy="1248" grid="1" gridSize="10" guides="1" tooltips="1" connect="1" arrows="1" fold="1" page="1" pageScale="1" pageWidth="1654" pageHeight="1169" math="0" shadow="0">
      <root>
        <mxCell id="0" />
        <mxCell id="1" parent="0" />
        <mxCell id="3IASwDgf_COoiKYOPxRM-22" value="Initializers imp Diagram&lt;div&gt;&lt;br&gt;&lt;/div&gt;&lt;div&gt;&lt;font style=&quot;font-size: 10px; color: rgb(128, 128, 128);&quot;&gt;In Typealiases.swift file protocols of underlying collections are listed&lt;/font&gt;&lt;/div&gt;" style="rounded=0;whiteSpace=wrap;html=1;fontStyle=1;fillColor=#f5f5f5;fontColor=#333333;strokeColor=#666666;fontSize=14;strokeWidth=0.65;" parent="1" vertex="1">
          <mxGeometry x="440" width="1160" height="80" as="geometry" />
        </mxCell>
        <mxCell id="sW1JyRlPo4o779v0U5yo-18" value="" style="rounded=0;whiteSpace=wrap;html=1;strokeWidth=0.5;opacity=70;" parent="1" vertex="1">
          <mxGeometry x="280" y="920" width="1320" height="240" as="geometry" />
        </mxCell>
        <mxCell id="3IASwDgf_COoiKYOPxRM-10" style="edgeStyle=orthogonalEdgeStyle;rounded=0;orthogonalLoop=1;jettySize=auto;html=1;exitX=0.25;exitY=1;exitDx=0;exitDy=0;entryX=0.5;entryY=0;entryDx=0;entryDy=0;entryPerimeter=0;strokeColor=#FF8000;dashed=1;strokeWidth=1.15;" parent="1" source="3IASwDgf_COoiKYOPxRM-1" target="3IASwDgf_COoiKYOPxRM-11" edge="1">
          <mxGeometry relative="1" as="geometry">
            <mxPoint x="460" y="360" as="targetPoint" />
            <Array as="points">
              <mxPoint x="830" y="310" />
              <mxPoint x="460" y="310" />
            </Array>
          </mxGeometry>
        </mxCell>
        <mxCell id="3IASwDgf_COoiKYOPxRM-1" value="Mutable" style="rounded=1;whiteSpace=wrap;html=1;fontStyle=1" parent="1" vertex="1">
          <mxGeometry x="800" y="240" width="120" height="40" as="geometry" />
        </mxCell>
        <mxCell id="3IASwDgf_COoiKYOPxRM-9" style="edgeStyle=orthogonalEdgeStyle;rounded=0;orthogonalLoop=1;jettySize=auto;html=1;exitX=0.25;exitY=1;exitDx=0;exitDy=0;entryX=0.5;entryY=0;entryDx=0;entryDy=0;entryPerimeter=0;strokeColor=#FF8000;dashed=1;strokeWidth=1.15;" parent="1" source="3IASwDgf_COoiKYOPxRM-2" target="3IASwDgf_COoiKYOPxRM-11" edge="1">
          <mxGeometry relative="1" as="geometry">
            <mxPoint x="460" y="360" as="targetPoint" />
            <Array as="points">
              <mxPoint x="630" y="310" />
              <mxPoint x="460" y="310" />
            </Array>
          </mxGeometry>
        </mxCell>
        <mxCell id="3IASwDgf_COoiKYOPxRM-2" value="RangeReplaceable" style="rounded=1;whiteSpace=wrap;html=1;fontStyle=1" parent="1" vertex="1">
          <mxGeometry x="600" y="240" width="120" height="40" as="geometry" />
        </mxCell>
        <mxCell id="3IASwDgf_COoiKYOPxRM-5" style="edgeStyle=orthogonalEdgeStyle;rounded=0;orthogonalLoop=1;jettySize=auto;html=1;exitX=0.25;exitY=1;exitDx=0;exitDy=0;entryX=0.5;entryY=0;entryDx=0;entryDy=0;dashed=1;" parent="1" source="3IASwDgf_COoiKYOPxRM-3" target="3IASwDgf_COoiKYOPxRM-2" edge="1">
          <mxGeometry relative="1" as="geometry" />
        </mxCell>
        <mxCell id="3IASwDgf_COoiKYOPxRM-6" style="edgeStyle=orthogonalEdgeStyle;rounded=0;orthogonalLoop=1;jettySize=auto;html=1;exitX=0.25;exitY=1;exitDx=0;exitDy=0;entryX=0.5;entryY=0;entryDx=0;entryDy=0;dashed=1;" parent="1" source="3IASwDgf_COoiKYOPxRM-3" target="3IASwDgf_COoiKYOPxRM-1" edge="1">
          <mxGeometry relative="1" as="geometry" />
        </mxCell>
        <mxCell id="3IASwDgf_COoiKYOPxRM-3" value="Collection" style="rounded=1;whiteSpace=wrap;html=1;fontStyle=1" parent="1" vertex="1">
          <mxGeometry x="920" y="120" width="120" height="40" as="geometry" />
        </mxCell>
        <mxCell id="3IASwDgf_COoiKYOPxRM-11" value="&lt;span style=&quot;font-size: 10px; font-weight: 700; text-wrap-mode: wrap;&quot;&gt;RangeReplaceable&lt;/span&gt;&lt;div style=&quot;font-size: 10px; font-weight: 700; text-wrap-mode: wrap;&quot;&gt;+&lt;br&gt;&lt;div&gt;Mutable&lt;/div&gt;&lt;/div&gt;" style="verticalLabelPosition=middle;verticalAlign=middle;html=1;shape=mxgraph.basic.patternFillRect;fillStyle=diag;step=5;fillStrokeWidth=0.2;fillStrokeColor=#dddddd;align=center;labelPosition=center;whiteSpace=wrap;" parent="1" vertex="1">
          <mxGeometry x="400" y="360" width="120" height="40" as="geometry" />
        </mxCell>
        <mxCell id="3IASwDgf_COoiKYOPxRM-12" value="&lt;span style=&quot;font-size: 10px; text-wrap-mode: wrap;&quot;&gt;&lt;b&gt;Deque&lt;/b&gt;&lt;/span&gt;" style="verticalLabelPosition=middle;verticalAlign=middle;html=1;shape=mxgraph.basic.patternFillRect;fillStyle=diag;step=5;fillStrokeWidth=0.2;fillStrokeColor=#dddddd;align=center;labelPosition=center;whiteSpace=wrap;strokeWidth=0.75;" parent="1" vertex="1">
          <mxGeometry x="400" y="600" width="120" height="20" as="geometry" />
        </mxCell>
        <mxCell id="3IASwDgf_COoiKYOPxRM-13" value="&lt;span style=&quot;font-size: 10px; text-wrap-mode: wrap;&quot;&gt;&lt;b&gt;BitArray&lt;/b&gt;&lt;/span&gt;" style="verticalLabelPosition=middle;verticalAlign=middle;html=1;shape=mxgraph.basic.patternFillRect;fillStyle=diag;step=5;fillStrokeWidth=0.2;fillStrokeColor=#dddddd;align=center;labelPosition=center;whiteSpace=wrap;strokeWidth=0.75;" parent="1" vertex="1">
          <mxGeometry x="400" y="640" width="120" height="20" as="geometry" />
        </mxCell>
        <mxCell id="3IASwDgf_COoiKYOPxRM-15" value="&lt;span style=&quot;font-size: 10px; text-wrap-mode: wrap;&quot;&gt;&lt;b&gt;Array&lt;/b&gt;&lt;/span&gt;" style="verticalLabelPosition=middle;verticalAlign=middle;html=1;shape=mxgraph.basic.patternFillRect;fillStyle=diag;step=5;fillStrokeWidth=0.2;fillStrokeColor=#dddddd;align=center;labelPosition=center;whiteSpace=wrap;strokeWidth=0.75;" parent="1" vertex="1">
          <mxGeometry x="400" y="520" width="120" height="20" as="geometry" />
        </mxCell>
        <mxCell id="3IASwDgf_COoiKYOPxRM-16" value="&lt;span style=&quot;font-size: 10px; text-wrap-mode: wrap;&quot;&gt;&lt;b&gt;ContiguousArray&lt;/b&gt;&lt;/span&gt;" style="verticalLabelPosition=middle;verticalAlign=middle;html=1;shape=mxgraph.basic.patternFillRect;fillStyle=diag;step=5;fillStrokeWidth=0.2;fillStrokeColor=#dddddd;align=center;labelPosition=center;whiteSpace=wrap;strokeWidth=0.75;" parent="1" vertex="1">
          <mxGeometry x="400" y="560" width="120" height="20" as="geometry" />
        </mxCell>
        <mxCell id="3IASwDgf_COoiKYOPxRM-19" value="&lt;span style=&quot;font-size: 10px; text-wrap-mode: wrap;&quot;&gt;&lt;b&gt;RangeSet&lt;/b&gt;&lt;/span&gt;" style="verticalLabelPosition=middle;verticalAlign=middle;html=1;shape=mxgraph.basic.patternFillRect;fillStyle=diag;step=5;fillStrokeWidth=0.2;fillStrokeColor=#dddddd;align=center;labelPosition=center;fillColor=#dae8fc;strokeColor=#6c8ebf;whiteSpace=wrap;strokeWidth=0.75;" parent="1" vertex="1">
          <mxGeometry x="1400" y="460" width="120" height="20" as="geometry" />
        </mxCell>
        <mxCell id="sW1JyRlPo4o779v0U5yo-2" style="edgeStyle=orthogonalEdgeStyle;rounded=0;orthogonalLoop=1;jettySize=auto;html=1;exitX=0.75;exitY=1;exitDx=0;exitDy=0;entryX=0.5;entryY=0;entryDx=0;entryDy=0;entryPerimeter=0;dashed=1;" parent="1" source="3IASwDgf_COoiKYOPxRM-3" target="sW1JyRlPo4o779v0U5yo-1" edge="1">
          <mxGeometry relative="1" as="geometry">
            <Array as="points">
              <mxPoint x="1010" y="200" />
              <mxPoint x="1160" y="200" />
            </Array>
          </mxGeometry>
        </mxCell>
        <mxCell id="sW1JyRlPo4o779v0U5yo-12" value="&lt;span style=&quot;font-size: 10px; font-weight: 700; text-wrap-mode: wrap;&quot;&gt;RangeReplaceable&lt;/span&gt;&lt;div&gt;&lt;span style=&quot;font-size: 10px; text-wrap-mode: wrap;&quot;&gt;&lt;b&gt;&lt;br&gt;&lt;/b&gt;&lt;/span&gt;&lt;div style=&quot;font-size: 10px; font-weight: 700; text-wrap-mode: wrap;&quot;&gt;only&lt;/div&gt;&lt;/div&gt;" style="verticalLabelPosition=middle;verticalAlign=middle;html=1;shape=mxgraph.basic.patternFillRect;fillStyle=diag;step=5;fillStrokeWidth=0.2;fillStrokeColor=#dddddd;align=center;labelPosition=center;whiteSpace=wrap;" parent="1" vertex="1">
          <mxGeometry x="600" y="360" width="120" height="40" as="geometry" />
        </mxCell>
        <mxCell id="sW1JyRlPo4o779v0U5yo-13" value="&lt;span style=&quot;font-size: 10px; text-wrap-mode: wrap;&quot;&gt;&lt;b&gt;BigString&lt;/b&gt;&lt;/span&gt;" style="verticalLabelPosition=middle;verticalAlign=middle;html=1;shape=mxgraph.basic.patternFillRect;fillStyle=diag;step=5;fillStrokeWidth=0.2;fillStrokeColor=#dddddd;align=center;labelPosition=center;whiteSpace=wrap;strokeWidth=0.75;" parent="1" vertex="1">
          <mxGeometry x="600" y="460" width="120" height="20" as="geometry" />
        </mxCell>
        <mxCell id="sW1JyRlPo4o779v0U5yo-14" value="&lt;span style=&quot;font-size: 10px; font-weight: 700; text-wrap-mode: wrap;&quot;&gt;Mutable&lt;/span&gt;&lt;div&gt;&lt;span style=&quot;font-size: 10px; text-wrap-mode: wrap;&quot;&gt;&lt;b&gt;&lt;br&gt;&lt;/b&gt;&lt;/span&gt;&lt;div style=&quot;font-size: 10px; font-weight: 700; text-wrap-mode: wrap;&quot;&gt;only&lt;/div&gt;&lt;/div&gt;" style="verticalLabelPosition=middle;verticalAlign=middle;html=1;shape=mxgraph.basic.patternFillRect;fillStyle=diag;step=5;fillStrokeWidth=0.2;fillStrokeColor=#dddddd;align=center;labelPosition=center;whiteSpace=wrap;" parent="1" vertex="1">
          <mxGeometry x="800" y="360" width="120" height="40" as="geometry" />
        </mxCell>
        <mxCell id="sW1JyRlPo4o779v0U5yo-15" value="&lt;span style=&quot;font-size: 10px; text-wrap-mode: wrap;&quot;&gt;&lt;b&gt;CollectionOfOne&lt;/b&gt;&lt;/span&gt;" style="verticalLabelPosition=middle;verticalAlign=middle;html=1;shape=mxgraph.basic.patternFillRect;fillStyle=diag;step=5;fillStrokeWidth=0.2;fillStrokeColor=#dddddd;align=center;labelPosition=center;whiteSpace=wrap;strokeWidth=0.75;" parent="1" vertex="1">
          <mxGeometry x="800" y="460" width="120" height="20" as="geometry" />
        </mxCell>
        <mxCell id="sW1JyRlPo4o779v0U5yo-16" style="edgeStyle=orthogonalEdgeStyle;rounded=0;orthogonalLoop=1;jettySize=auto;html=1;exitX=0.5;exitY=1;exitDx=0;exitDy=0;entryX=0.5;entryY=0;entryDx=0;entryDy=0;entryPerimeter=0;strokeWidth=1;dashed=1;" parent="1" source="3IASwDgf_COoiKYOPxRM-2" target="sW1JyRlPo4o779v0U5yo-12" edge="1">
          <mxGeometry relative="1" as="geometry" />
        </mxCell>
        <mxCell id="sW1JyRlPo4o779v0U5yo-17" style="edgeStyle=orthogonalEdgeStyle;rounded=0;orthogonalLoop=1;jettySize=auto;html=1;exitX=0.5;exitY=1;exitDx=0;exitDy=0;entryX=0.5;entryY=0;entryDx=0;entryDy=0;entryPerimeter=0;strokeWidth=1;dashed=1;" parent="1" source="3IASwDgf_COoiKYOPxRM-1" target="sW1JyRlPo4o779v0U5yo-14" edge="1">
          <mxGeometry relative="1" as="geometry" />
        </mxCell>
        <mxCell id="X6VAbB2DJtp1OujrMZTn-1" value="&lt;font style=&quot;color: rgb(153, 153, 153);&quot;&gt;&lt;span style=&quot;font-size: 10px; text-wrap-mode: wrap;&quot;&gt;&lt;b&gt;Empty&lt;/b&gt;&lt;/span&gt;&lt;b style=&quot;font-size: 10px; text-wrap-mode: wrap; background-color: transparent;&quot;&gt;Collection&lt;/b&gt;&lt;/font&gt;" style="verticalLabelPosition=middle;verticalAlign=middle;html=1;shape=mxgraph.basic.patternFillRect;fillStyle=diag;step=5;fillStrokeWidth=0.2;fillStrokeColor=#dddddd;align=center;labelPosition=center;fillColor=#f5f5f5;fontColor=#333333;strokeColor=#666666;whiteSpace=wrap;strokeWidth=0.75;" vertex="1" parent="1">
          <mxGeometry x="800" y="500" width="120" height="20" as="geometry" />
        </mxCell>
        <mxCell id="X6VAbB2DJtp1OujrMZTn-2" value="NonEmpty&lt;div&gt;Disallowed&lt;/div&gt;" style="rounded=1;whiteSpace=wrap;html=1;fontStyle=1;fillColor=#f5f5f5;fontColor=#999999;strokeColor=#808080;" vertex="1" parent="1">
          <mxGeometry x="800" y="840" width="120" height="40" as="geometry" />
        </mxCell>
        <mxCell id="X6VAbB2DJtp1OujrMZTn-3" style="edgeStyle=orthogonalEdgeStyle;rounded=0;orthogonalLoop=1;jettySize=auto;html=1;exitX=0.5;exitY=0;exitDx=0;exitDy=0;entryX=0.5;entryY=1;entryDx=0;entryDy=0;entryPerimeter=0;fontColor=default;strokeColor=#808080;strokeWidth=0.75;" edge="1" parent="1" source="X6VAbB2DJtp1OujrMZTn-2" target="X6VAbB2DJtp1OujrMZTn-1">
          <mxGeometry relative="1" as="geometry" />
        </mxCell>
        <mxCell id="X6VAbB2DJtp1OujrMZTn-5" value="&lt;font style=&quot;&quot;&gt;&lt;b style=&quot;font-size: 10px; text-wrap-mode: wrap; background-color: transparent;&quot;&gt;no Collection&lt;/b&gt;&lt;/font&gt;&lt;div&gt;&lt;font style=&quot;&quot;&gt;&lt;b style=&quot;font-size: 10px; text-wrap-mode: wrap; background-color: transparent;&quot;&gt;conformance&lt;/b&gt;&lt;/font&gt;&lt;/div&gt;" style="verticalLabelPosition=middle;verticalAlign=middle;html=1;shape=mxgraph.basic.patternFillRect;fillStyle=diag;step=5;fillStrokeWidth=0.2;fillStrokeColor=#dddddd;align=center;labelPosition=center;fillColor=#f5f5f5;fontColor=#000000;strokeColor=#666666;whiteSpace=wrap;" vertex="1" parent="1">
          <mxGeometry x="1400" y="360" width="120" height="40" as="geometry" />
        </mxCell>
        <mxCell id="X6VAbB2DJtp1OujrMZTn-6" value="&lt;span style=&quot;font-size: 10px; text-wrap-mode: wrap;&quot;&gt;&lt;b&gt;Supportable&lt;/b&gt;&lt;/span&gt;" style="verticalLabelPosition=middle;verticalAlign=middle;html=1;shape=mxgraph.basic.patternFillRect;fillStyle=diag;step=5;fillStrokeWidth=0.2;fillStrokeColor=#dddddd;align=center;labelPosition=center;whiteSpace=wrap;strokeWidth=0.75;" vertex="1" parent="1">
          <mxGeometry x="200" y="120" width="120" height="20" as="geometry" />
        </mxCell>
        <mxCell id="X6VAbB2DJtp1OujrMZTn-7" value="&lt;font color=&quot;#999999&quot;&gt;&lt;span style=&quot;font-size: 10px;&quot;&gt;&lt;b&gt;Explicitly disallowed&lt;/b&gt;&lt;/span&gt;&lt;/font&gt;" style="verticalLabelPosition=middle;verticalAlign=middle;html=1;shape=mxgraph.basic.patternFillRect;fillStyle=diag;step=5;fillStrokeWidth=0.2;fillStrokeColor=#dddddd;align=center;labelPosition=center;fillColor=#f5f5f5;fontColor=#333333;strokeColor=#666666;whiteSpace=wrap;strokeWidth=0.75;" vertex="1" parent="1">
          <mxGeometry x="200" y="240" width="120" height="20" as="geometry" />
        </mxCell>
        <mxCell id="X6VAbB2DJtp1OujrMZTn-8" value="&lt;span style=&quot;font-size: 10px; text-wrap-mode: wrap;&quot;&gt;&lt;b&gt;To be done&lt;/b&gt;&lt;/span&gt;" style="verticalLabelPosition=middle;verticalAlign=middle;html=1;shape=mxgraph.basic.patternFillRect;fillStyle=diag;step=5;fillStrokeWidth=0.2;fillStrokeColor=#dddddd;align=center;labelPosition=center;fillColor=#dae8fc;strokeColor=#6c8ebf;whiteSpace=wrap;strokeWidth=0.75;" vertex="1" parent="1">
          <mxGeometry x="200" y="160" width="120" height="20" as="geometry" />
        </mxCell>
        <mxCell id="X6VAbB2DJtp1OujrMZTn-11" value="RangeReplaceable based init" style="shape=umlFrame;whiteSpace=wrap;html=1;pointerEvents=0;recursiveResize=0;container=1;collapsible=0;width=155;height=20;fontStyle=1;fontSize=10;align=center;spacingLeft=0;" vertex="1" parent="1">
          <mxGeometry x="370" y="690" width="180" height="80" as="geometry" />
        </mxCell>
        <mxCell id="X6VAbB2DJtp1OujrMZTn-12" value="init(element: Element)&#xa;&#xa;init(elements first: Element, &#xa;      _ other: Element...)" style="text;whiteSpace=wrap;fontSize=10;verticalAlign=top;spacing=0;" vertex="1" parent="X6VAbB2DJtp1OujrMZTn-11">
          <mxGeometry x="10" y="20" width="140" height="54" as="geometry" />
        </mxCell>
        <mxCell id="X6VAbB2DJtp1OujrMZTn-15" value="&lt;span style=&quot;font-size: 10px; text-wrap-mode: wrap;&quot;&gt;&lt;b&gt;String&lt;/b&gt;&lt;/span&gt;" style="verticalLabelPosition=middle;verticalAlign=middle;html=1;shape=mxgraph.basic.patternFillRect;fillStyle=diag;step=5;fillStrokeWidth=0.2;fillStrokeColor=#dddddd;align=center;labelPosition=center;whiteSpace=wrap;strokeWidth=0.75;" vertex="1" parent="1">
          <mxGeometry x="400" y="460" width="120" height="20" as="geometry" />
        </mxCell>
        <mxCell id="X6VAbB2DJtp1OujrMZTn-22" value="&lt;span style=&quot;font-size: 10px; font-weight: 700;&quot;&gt;RangeReplaceable&lt;/span&gt;&lt;div style=&quot;font-size: 10px; font-weight: 700;&quot;&gt;+&lt;br&gt;&lt;div&gt;Mutable&lt;/div&gt;&lt;/div&gt;" style="shape=hexagon;perimeter=hexagonPerimeter2;whiteSpace=wrap;html=1;fixedSize=1;" vertex="1" parent="1">
          <mxGeometry x="-360" y="960" width="120" height="50" as="geometry" />
        </mxCell>
        <mxCell id="X6VAbB2DJtp1OujrMZTn-23" value="Vertical Container" style="swimlane;whiteSpace=wrap;html=1;" vertex="1" parent="1">
          <mxGeometry x="-150" y="680" width="190" height="200" as="geometry" />
        </mxCell>
        <mxCell id="X6VAbB2DJtp1OujrMZTn-29" value="List" style="swimlane;fontStyle=0;childLayout=stackLayout;horizontal=1;startSize=30;horizontalStack=0;resizeParent=1;resizeParentMax=0;resizeLast=0;collapsible=1;marginBottom=0;whiteSpace=wrap;html=1;" vertex="1" parent="1">
          <mxGeometry x="-340" y="680" width="140" height="120" as="geometry" />
        </mxCell>
        <mxCell id="X6VAbB2DJtp1OujrMZTn-30" value="Item 1" style="text;strokeColor=none;fillColor=none;align=left;verticalAlign=middle;spacingLeft=4;spacingRight=4;overflow=hidden;points=[[0,0.5],[1,0.5]];portConstraint=eastwest;rotatable=0;whiteSpace=wrap;html=1;" vertex="1" parent="X6VAbB2DJtp1OujrMZTn-29">
          <mxGeometry y="30" width="140" height="30" as="geometry" />
        </mxCell>
        <mxCell id="X6VAbB2DJtp1OujrMZTn-31" value="Item 2" style="text;strokeColor=none;fillColor=none;align=left;verticalAlign=middle;spacingLeft=4;spacingRight=4;overflow=hidden;points=[[0,0.5],[1,0.5]];portConstraint=eastwest;rotatable=0;whiteSpace=wrap;html=1;" vertex="1" parent="X6VAbB2DJtp1OujrMZTn-29">
          <mxGeometry y="60" width="140" height="30" as="geometry" />
        </mxCell>
        <mxCell id="X6VAbB2DJtp1OujrMZTn-32" value="Item 3" style="text;strokeColor=none;fillColor=none;align=left;verticalAlign=middle;spacingLeft=4;spacingRight=4;overflow=hidden;points=[[0,0.5],[1,0.5]];portConstraint=eastwest;rotatable=0;whiteSpace=wrap;html=1;" vertex="1" parent="X6VAbB2DJtp1OujrMZTn-29">
          <mxGeometry y="90" width="140" height="30" as="geometry" />
        </mxCell>
        <mxCell id="X6VAbB2DJtp1OujrMZTn-45" value="" style="swimlane;shape=mxgraph.bootstrap.anchor;strokeColor=none;fillColor=#6C767D;fontColor=#ffffff;fontStyle=0;childLayout=stackLayout;horizontal=0;startSize=0;horizontalStack=1;resizeParent=1;resizeParentMax=0;resizeLast=0;collapsible=0;marginBottom=0;whiteSpace=wrap;html=1;" vertex="1" parent="1">
          <mxGeometry x="-760" y="960" width="260" height="30" as="geometry" />
        </mxCell>
        <mxCell id="X6VAbB2DJtp1OujrMZTn-46" value="1" style="text;strokeColor=inherit;align=center;verticalAlign=middle;spacingLeft=10;spacingRight=10;overflow=hidden;points=[[0,0.5],[1,0.5]];portConstraint=eastwest;rotatable=0;whiteSpace=wrap;html=1;shape=mxgraph.bootstrap.leftButton;rSize=5;fillColor=inherit;fontColor=inherit;" vertex="1" parent="X6VAbB2DJtp1OujrMZTn-45">
          <mxGeometry width="30" height="30" as="geometry" />
        </mxCell>
        <mxCell id="X6VAbB2DJtp1OujrMZTn-47" value="2" style="text;strokeColor=inherit;align=center;verticalAlign=middle;spacingLeft=10;spacingRight=10;overflow=hidden;points=[[0,0.5],[1,0.5]];portConstraint=eastwest;rotatable=0;whiteSpace=wrap;html=1;rSize=5;fillColor=inherit;fontColor=inherit;" vertex="1" parent="X6VAbB2DJtp1OujrMZTn-45">
          <mxGeometry x="30" width="30" height="30" as="geometry" />
        </mxCell>
        <mxCell id="X6VAbB2DJtp1OujrMZTn-48" value="3" style="text;strokeColor=inherit;align=center;verticalAlign=middle;spacingLeft=10;spacingRight=10;overflow=hidden;points=[[0,0.5],[1,0.5]];portConstraint=eastwest;rotatable=0;whiteSpace=wrap;html=1;rSize=5;fillColor=inherit;fontColor=inherit;" vertex="1" parent="X6VAbB2DJtp1OujrMZTn-45">
          <mxGeometry x="60" width="30" height="30" as="geometry" />
        </mxCell>
        <mxCell id="X6VAbB2DJtp1OujrMZTn-49" value="4" style="text;strokeColor=inherit;align=center;verticalAlign=middle;spacingLeft=10;spacingRight=10;overflow=hidden;points=[[0,0.5],[1,0.5]];portConstraint=eastwest;rotatable=0;whiteSpace=wrap;html=1;shape=mxgraph.bootstrap.rightButton;rSize=5;fillColor=inherit;fontColor=inherit;" vertex="1" parent="X6VAbB2DJtp1OujrMZTn-45">
          <mxGeometry x="90" width="30" height="30" as="geometry" />
        </mxCell>
        <mxCell id="X6VAbB2DJtp1OujrMZTn-50" value="" style="text;" vertex="1" parent="X6VAbB2DJtp1OujrMZTn-45">
          <mxGeometry x="120" width="10" height="30" as="geometry" />
        </mxCell>
        <mxCell id="X6VAbB2DJtp1OujrMZTn-51" value="5" style="text;strokeColor=inherit;align=center;verticalAlign=middle;spacingLeft=10;spacingRight=10;overflow=hidden;points=[[0,0.5],[1,0.5]];portConstraint=eastwest;rotatable=0;whiteSpace=wrap;html=1;shape=mxgraph.bootstrap.leftButton;rSize=5;fillColor=inherit;fontColor=inherit;" vertex="1" parent="X6VAbB2DJtp1OujrMZTn-45">
          <mxGeometry x="130" width="30" height="30" as="geometry" />
        </mxCell>
        <mxCell id="X6VAbB2DJtp1OujrMZTn-52" value="6" style="text;strokeColor=inherit;align=center;verticalAlign=middle;spacingLeft=10;spacingRight=10;overflow=hidden;points=[[0,0.5],[1,0.5]];portConstraint=eastwest;rotatable=0;whiteSpace=wrap;html=1;rSize=5;fillColor=inherit;fontColor=inherit;" vertex="1" parent="X6VAbB2DJtp1OujrMZTn-45">
          <mxGeometry x="160" width="30" height="30" as="geometry" />
        </mxCell>
        <mxCell id="X6VAbB2DJtp1OujrMZTn-53" value="7" style="text;strokeColor=inherit;align=center;verticalAlign=middle;spacingLeft=10;spacingRight=10;overflow=hidden;points=[[0,0.5],[1,0.5]];portConstraint=eastwest;rotatable=0;whiteSpace=wrap;html=1;shape=mxgraph.bootstrap.rightButton;rSize=5;fillColor=inherit;fontColor=inherit;" vertex="1" parent="X6VAbB2DJtp1OujrMZTn-45">
          <mxGeometry x="190" width="30" height="30" as="geometry" />
        </mxCell>
        <mxCell id="X6VAbB2DJtp1OujrMZTn-54" value="" style="text;" vertex="1" parent="X6VAbB2DJtp1OujrMZTn-45">
          <mxGeometry x="220" width="10" height="30" as="geometry" />
        </mxCell>
        <mxCell id="X6VAbB2DJtp1OujrMZTn-55" value="8" style="text;strokeColor=inherit;align=center;verticalAlign=middle;spacingLeft=10;spacingRight=10;overflow=hidden;points=[[0,0.5],[1,0.5]];portConstraint=eastwest;rotatable=0;whiteSpace=wrap;html=1;shape=mxgraph.bootstrap.rrect;rSize=5;fillColor=inherit;fontColor=inherit;" vertex="1" parent="X6VAbB2DJtp1OujrMZTn-45">
          <mxGeometry x="230" width="30" height="30" as="geometry" />
        </mxCell>
        <mxCell id="X6VAbB2DJtp1OujrMZTn-56" value="Edit" style="rounded=1;fillColor=#0065FF;align=center;strokeColor=none;html=1;fontColor=#ffffff;fontSize=12;whiteSpace=wrap;" vertex="1" parent="1">
          <mxGeometry x="-760" y="880" width="50" height="33" as="geometry" />
        </mxCell>
        <mxCell id="X6VAbB2DJtp1OujrMZTn-57" value="Comment" style="rounded=1;fillColor=#F1F2F4;align=center;strokeColor=none;html=1;fontColor=#596780;fontSize=12;whiteSpace=wrap;" vertex="1" parent="1">
          <mxGeometry x="-705" y="880" width="80" height="33" as="geometry" />
        </mxCell>
        <mxCell id="X6VAbB2DJtp1OujrMZTn-58" value="Assign" style="rounded=1;fillColor=#F1F2F4;align=center;strokeColor=none;html=1;fontColor=#596780;fontSize=12;whiteSpace=wrap;" vertex="1" parent="1">
          <mxGeometry x="-620" y="880" width="70" height="33" as="geometry" />
        </mxCell>
        <mxCell id="X6VAbB2DJtp1OujrMZTn-59" value="" style="strokeWidth=1;shadow=0;dashed=0;align=center;html=1;shape=mxgraph.mockup.rrect;rSize=10;fillColor=#F1F2F4;strokeColor=#ffffff;strokeWidth=2" vertex="1" parent="1">
          <mxGeometry x="-545" y="880" width="240" height="33" as="geometry" />
        </mxCell>
        <mxCell id="X6VAbB2DJtp1OujrMZTn-60" value="In Progress" style="strokeWidth=1;shadow=0;dashed=0;align=center;html=1;shape=mxgraph.mockup.rrect;rSize=0;fontSize=12;fontColor=#596780;fontStyle=0;fillColor=none;strokeColor=#ffffff;strokeWidth=2;resizeHeight=1;whiteSpace=wrap;" vertex="1" parent="X6VAbB2DJtp1OujrMZTn-59">
          <mxGeometry width="90" height="33" relative="1" as="geometry">
            <mxPoint x="60" as="offset" />
          </mxGeometry>
        </mxCell>
        <mxCell id="X6VAbB2DJtp1OujrMZTn-61" value="Workflow" style="strokeWidth=1;shadow=0;dashed=0;align=left;html=1;shape=mxgraph.mockup.rightButton;rSize=10;fontSize=12;fontColor=#596780;fontStyle=0;fillColor=none;strokeColor=#ffffff;strokeWidth=2;resizeHeight=1;spacingLeft=10;whiteSpace=wrap;" vertex="1" parent="X6VAbB2DJtp1OujrMZTn-59">
          <mxGeometry x="1" width="90" height="33" relative="1" as="geometry">
            <mxPoint x="-90" as="offset" />
          </mxGeometry>
        </mxCell>
        <mxCell id="X6VAbB2DJtp1OujrMZTn-62" value="" style="shape=triangle;direction=south;fillColor=#596780;strokeColor=none;html=1" vertex="1" parent="X6VAbB2DJtp1OujrMZTn-61">
          <mxGeometry x="1" y="0.5" width="12" height="6" relative="1" as="geometry">
            <mxPoint x="-20" y="-3" as="offset" />
          </mxGeometry>
        </mxCell>
        <mxCell id="X6VAbB2DJtp1OujrMZTn-63" value="Later" style="strokeWidth=1;shadow=0;dashed=0;align=center;html=1;shape=mxgraph.mockup.leftButton;rSize=10;fontSize=12;fontColor=#596780;fontStyle=0;fillColor=none;strokeColor=#ffffff;strokeWidth=2;resizeHeight=1;whiteSpace=wrap;" vertex="1" parent="X6VAbB2DJtp1OujrMZTn-59">
          <mxGeometry width="60" height="33" relative="1" as="geometry" />
        </mxCell>
        <mxCell id="X6VAbB2DJtp1OujrMZTn-64" value="" style="rounded=1;fillColor=#F1F2F4;align=center;strokeColor=none;html=1;fontColor=#596780;fontSize=12" vertex="1" parent="1">
          <mxGeometry x="-260" y="880" width="56" height="33" as="geometry" />
        </mxCell>
        <mxCell id="X6VAbB2DJtp1OujrMZTn-65" value="" style="shape=ellipse;fillColor=#596780;strokeColor=none;html=1" vertex="1" parent="X6VAbB2DJtp1OujrMZTn-64">
          <mxGeometry x="15" y="13" width="6" height="6" as="geometry" />
        </mxCell>
        <mxCell id="X6VAbB2DJtp1OujrMZTn-66" value="" style="shape=ellipse;fillColor=#596780;strokeColor=none;html=1" vertex="1" parent="X6VAbB2DJtp1OujrMZTn-64">
          <mxGeometry x="25" y="13" width="6" height="6" as="geometry" />
        </mxCell>
        <mxCell id="X6VAbB2DJtp1OujrMZTn-67" value="" style="shape=ellipse;fillColor=#596780;strokeColor=none;html=1" vertex="1" parent="X6VAbB2DJtp1OujrMZTn-64">
          <mxGeometry x="35" y="13" width="6" height="6" as="geometry" />
        </mxCell>
        <mxCell id="X6VAbB2DJtp1OujrMZTn-68" value="&lt;span style=&quot;font-size: 10px;&quot;&gt;&lt;b&gt;Need research&lt;/b&gt;&lt;/span&gt;" style="verticalLabelPosition=middle;verticalAlign=middle;html=1;shape=mxgraph.basic.patternFillRect;fillStyle=diag;step=5;fillStrokeWidth=0.2;fillStrokeColor=#dddddd;align=center;labelPosition=center;fillColor=#f5f5f5;fontColor=#000000;strokeColor=#666666;whiteSpace=wrap;strokeWidth=0.75;" vertex="1" parent="1">
          <mxGeometry x="200" y="200" width="120" height="20" as="geometry" />
        </mxCell>
        <mxCell id="X6VAbB2DJtp1OujrMZTn-69" value="&lt;b style=&quot;font-size: 10px;&quot;&gt;BigSubString&lt;/b&gt;" style="verticalLabelPosition=middle;verticalAlign=middle;html=1;shape=mxgraph.basic.patternFillRect;fillStyle=diag;step=5;fillStrokeWidth=0.2;fillStrokeColor=#dddddd;align=center;labelPosition=center;fillColor=#f5f5f5;fontColor=#000000;strokeColor=#666666;whiteSpace=wrap;strokeWidth=0.75;" vertex="1" parent="1">
          <mxGeometry x="600" y="480" width="120" height="20" as="geometry" />
        </mxCell>
        <mxCell id="X6VAbB2DJtp1OujrMZTn-70" value="&lt;b style=&quot;font-size: 10px;&quot;&gt;Substring&lt;/b&gt;" style="verticalLabelPosition=middle;verticalAlign=middle;html=1;shape=mxgraph.basic.patternFillRect;fillStyle=diag;step=5;fillStrokeWidth=0.2;fillStrokeColor=#dddddd;align=center;labelPosition=center;fillColor=#f5f5f5;fontColor=#000000;strokeColor=#666666;whiteSpace=wrap;strokeWidth=0.75;" vertex="1" parent="1">
          <mxGeometry x="400" y="480" width="120" height="20" as="geometry" />
        </mxCell>
        <mxCell id="X6VAbB2DJtp1OujrMZTn-75" value="&lt;b style=&quot;font-size: 10px;&quot;&gt;CharacterSet&lt;/b&gt;" style="verticalLabelPosition=middle;verticalAlign=middle;html=1;shape=mxgraph.basic.patternFillRect;fillStyle=diag;step=5;fillStrokeWidth=0.2;fillStrokeColor=#dddddd;align=center;labelPosition=center;fillColor=#dae8fc;strokeColor=#6c8ebf;whiteSpace=wrap;strokeWidth=0.75;" vertex="1" parent="1">
          <mxGeometry x="1400" y="500" width="120" height="20" as="geometry" />
        </mxCell>
        <mxCell id="X6VAbB2DJtp1OujrMZTn-82" style="edgeStyle=orthogonalEdgeStyle;rounded=0;orthogonalLoop=1;jettySize=auto;html=1;entryX=0.5;entryY=0;entryDx=0;entryDy=0;entryPerimeter=0;dashed=1;" edge="1" parent="1" target="X6VAbB2DJtp1OujrMZTn-5">
          <mxGeometry relative="1" as="geometry">
            <Array as="points">
              <mxPoint x="1460" y="160" />
            </Array>
            <mxPoint x="1460" y="160" as="sourcePoint" />
            <mxPoint x="1560" y="290" as="targetPoint" />
          </mxGeometry>
        </mxCell>
        <mxCell id="3IASwDgf_COoiKYOPxRM-17" value="&lt;span style=&quot;font-size: 10px; text-wrap-mode: wrap;&quot;&gt;&lt;b&gt;Range&lt;/b&gt;&lt;/span&gt;" style="verticalLabelPosition=middle;verticalAlign=middle;html=1;shape=mxgraph.basic.patternFillRect;fillStyle=diag;step=5;fillStrokeWidth=0.2;fillStrokeColor=#dddddd;align=center;labelPosition=center;fillColor=#dae8fc;strokeColor=#6c8ebf;whiteSpace=wrap;strokeWidth=0.75;" parent="1" vertex="1">
          <mxGeometry x="1200" y="580" width="120" height="20" as="geometry" />
        </mxCell>
        <mxCell id="3IASwDgf_COoiKYOPxRM-18" value="&lt;span style=&quot;font-size: 10px; text-wrap-mode: wrap;&quot;&gt;&lt;b&gt;ClosedRange&lt;/b&gt;&lt;/span&gt;" style="verticalLabelPosition=middle;verticalAlign=middle;html=1;shape=mxgraph.basic.patternFillRect;fillStyle=diag;step=5;fillStrokeWidth=0.2;fillStrokeColor=#dddddd;align=center;labelPosition=center;fillColor=#dae8fc;strokeColor=#6c8ebf;whiteSpace=wrap;strokeWidth=0.75;" parent="1" vertex="1">
          <mxGeometry x="1200" y="620" width="120" height="20" as="geometry" />
        </mxCell>
        <mxCell id="X6VAbB2DJtp1OujrMZTn-78" style="edgeStyle=orthogonalEdgeStyle;rounded=0;orthogonalLoop=1;jettySize=auto;html=1;exitX=0.25;exitY=1;exitDx=0;exitDy=0;exitPerimeter=0;entryX=0.5;entryY=0;entryDx=0;entryDy=0;dashed=1;" edge="1" parent="1" source="sW1JyRlPo4o779v0U5yo-1" target="X6VAbB2DJtp1OujrMZTn-76">
          <mxGeometry relative="1" as="geometry" />
        </mxCell>
        <mxCell id="X6VAbB2DJtp1OujrMZTn-79" value="Artificial protocol" style="edgeLabel;html=1;align=center;verticalAlign=middle;resizable=0;points=[];fontColor=#0066CC;" vertex="1" connectable="0" parent="X6VAbB2DJtp1OujrMZTn-78">
          <mxGeometry x="0.3037" y="-1" relative="1" as="geometry">
            <mxPoint x="13" y="-9" as="offset" />
          </mxGeometry>
        </mxCell>
        <mxCell id="sW1JyRlPo4o779v0U5yo-1" value="&lt;span style=&quot;font-size: 10px; text-wrap-mode: wrap;&quot;&gt;&lt;b&gt;No common builtin protocol&lt;/b&gt;&lt;/span&gt;&lt;div&gt;&lt;span style=&quot;font-size: 10px; text-wrap-mode: wrap;&quot;&gt;&lt;b&gt;to init&amp;nbsp;&lt;/b&gt;&lt;/span&gt;&lt;b style=&quot;font-size: 10px; background-color: transparent; color: light-dark(rgb(0, 0, 0), rgb(255, 255, 255));&quot;&gt;generically&lt;/b&gt;&lt;/div&gt;" style="verticalLabelPosition=middle;verticalAlign=middle;html=1;shape=mxgraph.basic.patternFillRect;fillStyle=diag;step=5;fillStrokeWidth=0.2;fillStrokeColor=#dddddd;align=center;labelPosition=center;whiteSpace=wrap;" parent="1" vertex="1">
          <mxGeometry x="1100" y="240" width="120" height="40" as="geometry" />
        </mxCell>
        <mxCell id="sW1JyRlPo4o779v0U5yo-3" value="&lt;span style=&quot;font-size: 10px; text-wrap-mode: wrap;&quot;&gt;&lt;b&gt;OrderedSet&lt;/b&gt;&lt;/span&gt;" style="verticalLabelPosition=middle;verticalAlign=middle;html=1;shape=mxgraph.basic.patternFillRect;fillStyle=diag;step=5;fillStrokeWidth=0.2;fillStrokeColor=#dddddd;align=center;labelPosition=center;whiteSpace=wrap;strokeWidth=0.75;" parent="1" vertex="1">
          <mxGeometry x="1000" y="500" width="120" height="20" as="geometry" />
        </mxCell>
        <mxCell id="sW1JyRlPo4o779v0U5yo-4" value="&lt;span style=&quot;font-size: 10px; text-wrap-mode: wrap;&quot;&gt;&lt;b&gt;BitSet&lt;/b&gt;&lt;/span&gt;" style="verticalLabelPosition=middle;verticalAlign=middle;html=1;shape=mxgraph.basic.patternFillRect;fillStyle=diag;step=5;fillStrokeWidth=0.2;fillStrokeColor=#dddddd;align=center;labelPosition=center;whiteSpace=wrap;strokeWidth=0.75;" parent="1" vertex="1">
          <mxGeometry x="1000" y="540" width="120" height="20" as="geometry" />
        </mxCell>
        <mxCell id="sW1JyRlPo4o779v0U5yo-5" value="&lt;span style=&quot;font-size: 10px; text-wrap-mode: wrap;&quot;&gt;&lt;b&gt;OrderedDictionary&lt;/b&gt;&lt;/span&gt;" style="verticalLabelPosition=middle;verticalAlign=middle;html=1;shape=mxgraph.basic.patternFillRect;fillStyle=diag;step=5;fillStrokeWidth=0.2;fillStrokeColor=#dddddd;align=center;labelPosition=center;whiteSpace=wrap;strokeWidth=0.75;" parent="1" vertex="1">
          <mxGeometry x="1200" y="500" width="120" height="20" as="geometry" />
        </mxCell>
        <mxCell id="sW1JyRlPo4o779v0U5yo-6" value="&lt;span style=&quot;font-size: 10px; text-wrap-mode: wrap;&quot;&gt;&lt;b&gt;TreeDictionary&lt;/b&gt;&lt;/span&gt;" style="verticalLabelPosition=middle;verticalAlign=middle;html=1;shape=mxgraph.basic.patternFillRect;fillStyle=diag;step=5;fillStrokeWidth=0.2;fillStrokeColor=#dddddd;align=center;labelPosition=center;whiteSpace=wrap;strokeWidth=0.75;" parent="1" vertex="1">
          <mxGeometry x="1200" y="540" width="120" height="20" as="geometry" />
        </mxCell>
        <mxCell id="sW1JyRlPo4o779v0U5yo-7" value="&lt;span style=&quot;font-size: 10px; text-wrap-mode: wrap;&quot;&gt;&lt;b&gt;TreeSet&lt;/b&gt;&lt;/span&gt;" style="verticalLabelPosition=middle;verticalAlign=middle;html=1;shape=mxgraph.basic.patternFillRect;fillStyle=diag;step=5;fillStrokeWidth=0.2;fillStrokeColor=#dddddd;align=center;labelPosition=center;whiteSpace=wrap;strokeWidth=0.75;" parent="1" vertex="1">
          <mxGeometry x="1000" y="580" width="120" height="20" as="geometry" />
        </mxCell>
        <mxCell id="sW1JyRlPo4o779v0U5yo-8" value="&lt;span style=&quot;font-size: 10px; text-wrap-mode: wrap;&quot;&gt;&lt;b&gt;Set&lt;/b&gt;&lt;/span&gt;" style="verticalLabelPosition=middle;verticalAlign=middle;html=1;shape=mxgraph.basic.patternFillRect;fillStyle=diag;step=5;fillStrokeWidth=0.2;fillStrokeColor=#dddddd;align=center;labelPosition=center;whiteSpace=wrap;strokeWidth=0.75;" parent="1" vertex="1">
          <mxGeometry x="1000" y="460" width="120" height="20" as="geometry" />
        </mxCell>
        <mxCell id="sW1JyRlPo4o779v0U5yo-9" value="&lt;b style=&quot;font-size: 10px; text-wrap-mode: wrap;&quot;&gt;Dictionary&lt;/b&gt;" style="verticalLabelPosition=middle;verticalAlign=middle;html=1;shape=mxgraph.basic.patternFillRect;fillStyle=diag;step=5;fillStrokeWidth=0.2;fillStrokeColor=#dddddd;align=center;labelPosition=center;whiteSpace=wrap;strokeWidth=0.75;" parent="1" vertex="1">
          <mxGeometry x="1200" y="460" width="120" height="20" as="geometry" />
        </mxCell>
        <mxCell id="sW1JyRlPo4o779v0U5yo-10" value="&lt;span style=&quot;font-size: 10px; text-wrap-mode: wrap;&quot;&gt;&lt;b&gt;IndexSet&lt;/b&gt;&lt;/span&gt;" style="verticalLabelPosition=middle;verticalAlign=middle;html=1;shape=mxgraph.basic.patternFillRect;fillStyle=diag;step=5;fillStrokeWidth=0.2;fillStrokeColor=#dddddd;align=center;labelPosition=center;whiteSpace=wrap;strokeWidth=0.75;" parent="1" vertex="1">
          <mxGeometry x="1000" y="620" width="120" height="20" as="geometry" />
        </mxCell>
        <mxCell id="X6VAbB2DJtp1OujrMZTn-76" value="&lt;font style=&quot;&quot;&gt;NonEmpty&lt;/font&gt;&lt;div&gt;&lt;font style=&quot;&quot;&gt;CompatibleSet&lt;/font&gt;&lt;/div&gt;&lt;div&gt;&lt;font style=&quot;&quot;&gt;Collection&lt;/font&gt;&lt;/div&gt;" style="rounded=1;whiteSpace=wrap;html=1;fontStyle=1;fontColor=#004C99;" vertex="1" parent="1">
          <mxGeometry x="1000" y="360" width="120" height="40" as="geometry" />
        </mxCell>
        <mxCell id="X6VAbB2DJtp1OujrMZTn-80" style="edgeStyle=orthogonalEdgeStyle;rounded=0;orthogonalLoop=1;jettySize=auto;html=1;exitX=0.75;exitY=1;exitDx=0;exitDy=0;exitPerimeter=0;dashed=1;" edge="1" parent="1" source="sW1JyRlPo4o779v0U5yo-1">
          <mxGeometry relative="1" as="geometry">
            <mxPoint x="1230" y="310" as="sourcePoint" />
            <mxPoint x="1260" y="380" as="targetPoint" />
            <Array as="points">
              <mxPoint x="1190" y="320" />
              <mxPoint x="1260" y="320" />
            </Array>
          </mxGeometry>
        </mxCell>
        <mxCell id="X6VAbB2DJtp1OujrMZTn-83" value="Compatible Set-Type based init" style="shape=umlFrame;whiteSpace=wrap;html=1;pointerEvents=0;recursiveResize=0;container=1;collapsible=0;width=155;height=20;fontStyle=1;fontSize=10;align=center;spacingLeft=0;" vertex="1" parent="1">
          <mxGeometry x="970" y="660" width="180" height="80" as="geometry" />
        </mxCell>
        <mxCell id="X6VAbB2DJtp1OujrMZTn-84" value="init(element: Element)&#xa;&#xa;init(elements first: Element, &#xa;      _ other: Element...)" style="text;whiteSpace=wrap;fontSize=10;verticalAlign=top;spacing=0;" vertex="1" parent="X6VAbB2DJtp1OujrMZTn-83">
          <mxGeometry x="10" y="20" width="140" height="54" as="geometry" />
        </mxCell>
        <mxCell id="X6VAbB2DJtp1OujrMZTn-88" value="head-tail init&lt;div&gt;Disallowed&lt;/div&gt;" style="rounded=1;whiteSpace=wrap;html=1;fontStyle=1;fillColor=#f5f5f5;fontColor=#999999;strokeColor=#808080;" vertex="1" parent="1">
          <mxGeometry x="640" y="840" width="120" height="40" as="geometry" />
        </mxCell>
        <mxCell id="X6VAbB2DJtp1OujrMZTn-90" style="edgeStyle=orthogonalEdgeStyle;rounded=0;orthogonalLoop=1;jettySize=auto;html=1;exitX=0;exitY=0.5;exitDx=0;exitDy=0;entryX=1;entryY=0.5;entryDx=0;entryDy=0;entryPerimeter=0;fontColor=default;strokeColor=#808080;strokeWidth=0.75;" edge="1" parent="1" source="X6VAbB2DJtp1OujrMZTn-88" target="X6VAbB2DJtp1OujrMZTn-70">
          <mxGeometry relative="1" as="geometry">
            <mxPoint x="880" y="940" as="sourcePoint" />
            <mxPoint x="880" y="600" as="targetPoint" />
          </mxGeometry>
        </mxCell>
        <mxCell id="X6VAbB2DJtp1OujrMZTn-91" style="edgeStyle=orthogonalEdgeStyle;rounded=0;orthogonalLoop=1;jettySize=auto;html=1;exitX=0.5;exitY=0;exitDx=0;exitDy=0;entryX=0.5;entryY=1;entryDx=0;entryDy=0;entryPerimeter=0;fontColor=default;strokeColor=#808080;strokeWidth=0.75;" edge="1" parent="1" source="X6VAbB2DJtp1OujrMZTn-88" target="X6VAbB2DJtp1OujrMZTn-69">
          <mxGeometry relative="1" as="geometry">
            <mxPoint x="710" y="840" as="sourcePoint" />
            <mxPoint x="710" y="500" as="targetPoint" />
            <Array as="points">
              <mxPoint x="700" y="820" />
              <mxPoint x="660" y="820" />
            </Array>
          </mxGeometry>
        </mxCell>
        <mxCell id="1AWGjHHhZuSpIFOF91N6-5" value="" style="shape=flexArrow;endArrow=classic;html=1;rounded=0;endWidth=9.411764705882353;endSize=3.016161616161616;width=10;strokeWidth=0.6;" edge="1" parent="1">
          <mxGeometry width="50" height="50" relative="1" as="geometry">
            <mxPoint x="1259.62" y="420" as="sourcePoint" />
            <mxPoint x="1259.62" y="440" as="targetPoint" />
          </mxGeometry>
        </mxCell>
        <mxCell id="1AWGjHHhZuSpIFOF91N6-6" value="" style="shape=flexArrow;endArrow=classic;html=1;rounded=0;endWidth=9.411764705882353;endSize=3.016161616161616;width=10;strokeWidth=0.6;" edge="1" parent="1">
          <mxGeometry width="50" height="50" relative="1" as="geometry">
            <mxPoint x="859.71" y="420" as="sourcePoint" />
            <mxPoint x="859.71" y="440" as="targetPoint" />
          </mxGeometry>
        </mxCell>
        <mxCell id="1AWGjHHhZuSpIFOF91N6-7" value="" style="shape=flexArrow;endArrow=classic;html=1;rounded=0;endWidth=9.411764705882353;endSize=3.016161616161616;width=10;strokeWidth=0.6;" edge="1" parent="1">
          <mxGeometry width="50" height="50" relative="1" as="geometry">
            <mxPoint x="1059.73" y="420" as="sourcePoint" />
            <mxPoint x="1059.73" y="440" as="targetPoint" />
          </mxGeometry>
        </mxCell>
        <mxCell id="1AWGjHHhZuSpIFOF91N6-8" value="" style="shape=flexArrow;endArrow=classic;html=1;rounded=0;endWidth=9.411764705882353;endSize=3.016161616161616;width=10;strokeWidth=0.6;" edge="1" parent="1">
          <mxGeometry width="50" height="50" relative="1" as="geometry">
            <mxPoint x="659.66" y="420" as="sourcePoint" />
            <mxPoint x="659.66" y="440" as="targetPoint" />
          </mxGeometry>
        </mxCell>
        <mxCell id="1AWGjHHhZuSpIFOF91N6-9" value="" style="shape=flexArrow;endArrow=classic;html=1;rounded=0;endWidth=9.411764705882353;endSize=3.016161616161616;width=10;strokeWidth=0.6;" edge="1" parent="1">
          <mxGeometry width="50" height="50" relative="1" as="geometry">
            <mxPoint x="459.72" y="420" as="sourcePoint" />
            <mxPoint x="459.72" y="440" as="targetPoint" />
          </mxGeometry>
        </mxCell>
        <mxCell id="1AWGjHHhZuSpIFOF91N6-10" value="" style="shape=flexArrow;endArrow=classic;html=1;rounded=0;endWidth=9.411764705882353;endSize=3.016161616161616;width=10;strokeWidth=0.6;" edge="1" parent="1">
          <mxGeometry width="50" height="50" relative="1" as="geometry">
            <mxPoint x="1459.69" y="420" as="sourcePoint" />
            <mxPoint x="1459.69" y="440" as="targetPoint" />
          </mxGeometry>
        </mxCell>
      </root>
    </mxGraphModel>
  </diagram>
  <diagram id="Wa-wJc9qYbAs8bhPhIhj" name="AllowedOperations">
    <mxGraphModel dx="2630" dy="2028" grid="1" gridSize="10" guides="1" tooltips="1" connect="1" arrows="1" fold="1" page="1" pageScale="1" pageWidth="1654" pageHeight="1169" math="0" shadow="0">
      <root>
        <mxCell id="0" />
        <mxCell id="1" parent="0" />
      </root>
    </mxGraphModel>
  </diagram>
</mxfile>
